<svg height="436pt" viewBox="0 -10 436.90667 436" width="436pt" xmlns="http://www.w3.org/2000/svg"><path d="m20.480469 287.171875c-7.539063 0-13.652344-6.113281-13.652344-13.652344v-25.253906c0-23.71875 19.296875-43.011719 43.011719-43.011719h45.734375c7.539062 0 13.652343 6.113282 13.652343 13.652344s-6.113281 13.652344-13.652343 13.652344h-45.734375c-8.660156 0-15.707032 7.046875-15.707032 15.707031v25.253906c0 7.539063-6.113281 13.652344-13.652343 13.652344zm0 0" fill="#fff35f"/><path d="m20.480469 287.171875v-6.824219c-3.765625-.007812-6.820313-3.0625-6.828125-6.828125v-25.253906c.003906-9.988281 4.046875-18.996094 10.613281-25.574219 6.578125-6.566406 15.585937-10.609375 25.574219-10.613281h45.734375c3.765625.007813 6.820312 3.0625 6.824219 6.828125-.003907 3.765625-3.058594 6.820312-6.824219 6.828125h-45.734375c-12.445313.011719-22.519532 10.085937-22.53125 22.53125v25.253906c-.007813 3.765625-3.0625 6.820313-6.828125 6.828125v13.652344c11.3125-.003906 20.472656-9.164062 20.480469-20.476562v-25.253907c.007812-4.878906 4.003906-8.871093 8.878906-8.882812h45.734375c11.3125-.003907 20.472656-9.164063 20.480469-20.476563-.007813-11.316406-9.167969-20.476562-20.480469-20.480468h-45.734375c-27.5.007812-49.8281252 22.332031-49.839844 49.839843v25.25c.00390625 11.3125 9.167969 20.476563 20.480469 20.480469zm0 0" fill="#54596e"/><path d="m416.425781 294c7.539063 0 13.652344-6.113281 13.652344-13.652344v-32.082031c0-23.71875-19.296875-43.011719-43.011719-43.011719h-45.734375c-7.539062 0-13.652343 6.113282-13.652343 13.652344s6.113281 13.652344 13.652343 13.652344h45.734375c8.660156 0 15.707032 7.046875 15.707032 15.707031v32.082031c0 7.539063 6.113281 13.652344 13.652343 13.652344zm0 0" fill="#fff35f"/><path d="m416.425781 294v6.828125c11.3125-.003906 20.476563-9.167969 20.480469-20.480469v-32.078125c-.011719-27.507812-22.339844-49.828125-49.839844-49.839843h-45.734375c-11.3125.003906-20.472656 9.164062-20.480469 20.480468.007813 11.3125 9.167969 20.472656 20.480469 20.476563h45.734375c4.875.011719 8.871094 4.003906 8.878906 8.882812v32.078125c.007813 11.3125 9.167969 20.472656 20.480469 20.476563v-13.652344c-3.765625-.007813-6.820312-3.058594-6.824219-6.824219v-32.082031c-.015624-12.445313-10.089843-22.519531-22.535156-22.53125h-45.734375c-3.765625-.007813-6.820312-3.0625-6.824219-6.828125.003907-3.765625 3.058594-6.820312 6.824219-6.828125h45.734375c9.988282.003906 18.996094 4.046875 25.574219 10.613281 6.566406 6.578125 10.609375 15.585938 10.613281 25.574219v32.082031c-.007812 3.765625-3.0625 6.816406-6.828125 6.824219zm0 0" fill="#54596e"/><path d="m334.507812 382.746094h-27.308593v-40.960938c0-6.847656-5.058594-12.46875-11.640625-13.449218 39.828125-38.351563 66.253906-105.488282 66.253906-181.960938 0-3.152344-.070312-6.273438-.15625-9.386719h-286.40625c-.085938 3.113281-.15625 6.234375-.15625 9.386719 0 76.472656 26.425781 143.609375 66.253906 181.960938-6.582031.980468-11.640625 6.601562-11.640625 13.449218v40.960938h-27.308593c-7.539063 0-13.652344 6.113281-13.652344 13.652344 0 7.542968 6.113281 13.65625 13.652344 13.65625h40.960937c7.539063 0 13.652344-6.113282 13.652344-13.65625v-54.613282l-.03125-.34375c18.628906 13.339844 39.46875 20.824219 61.472656 20.824219s42.84375-7.484375 61.472656-20.824219l-.03125.34375v54.613282c0 7.542968 6.113281 13.65625 13.652344 13.65625h40.960937c7.539063 0 13.652344-6.113282 13.652344-13.65625 0-7.539063-6.113281-13.652344-13.652344-13.652344zm0 0" fill="#fff35f"/><g fill="#54596e"><path d="m334.507812 382.746094v-6.824219h-20.480468v-34.136719c-.011719-10.304687-7.609375-18.746094-17.460938-20.203125l-1.007812 6.753907 4.738281 4.917968c41.546875-40.117187 68.292969-108.847656 68.34375-186.878906 0-3.253906-.070313-6.4375-.15625-9.578125-.105469-3.6875-3.136719-6.636719-6.824219-6.636719h-286.410156c-3.6875 0-6.71875 2.949219-6.824219 6.636719-.085937 3.140625-.160156 6.324219-.160156 9.578125.054687 78.03125 26.800781 146.761719 68.347656 186.878906l4.734375-4.917968-1.003906-6.753907c-9.855469 1.457031-17.453125 9.898438-17.464844 20.203125v34.136719h-20.480468c-11.3125 0-20.472657 9.164063-20.476563 20.476563.003906 11.316406 9.164063 20.476562 20.476563 20.480468h40.960937c11.3125-.003906 20.476563-9.164062 20.480469-20.480468v-54.613282l-.03125-.652344-.035156-.347656-6.792969.65625-3.976563 5.550782c19.585938 14.039062 41.875 22.109374 65.449219 22.097656 23.570313.011718 45.863281-8.058594 65.445313-22.097656l-3.972657-5.550782-6.796875-.65625-.035156.347656-.027344.652344v54.613282c.003906 11.316406 9.167969 20.476562 20.480469 20.480468h40.960937c11.3125-.003906 20.472657-9.164062 20.480469-20.480468-.007812-11.3125-9.167969-20.476563-20.480469-20.476563v13.652344c3.765626.007812 6.820313 3.0625 6.824219 6.828125-.003906 3.765625-3.058593 6.816406-6.824219 6.824218h-40.960937c-3.765625-.007812-6.820313-3.058593-6.828125-6.824218v-54.289063l.003906-.019531c.253906-2.664062-1.070312-5.234375-3.390625-6.570312-2.316406-1.335938-5.203125-1.191407-7.382812.363281-17.671875 12.644531-37.0625 19.542969-57.496094 19.554687-20.433594-.011718-39.824219-6.914062-57.5-19.554687-2.175781-1.554688-5.0625-1.699219-7.382813-.363281-2.320312 1.335937-3.644531 3.90625-3.386718 6.570312v.019531l.003906 54.285157c-.007812 3.765624-3.0625 6.820312-6.828125 6.828124h-40.960937c-3.765626-.007812-6.816407-3.0625-6.824219-6.828124.007812-3.765626 3.058593-6.816407 6.824219-6.828126l27.308593.003907c1.796875 0 3.554688-.730469 4.824219-2 1.273438-1.273438 2.003906-3.03125 2.003906-4.828125v-40.960938c-.011718-3.394531 2.507813-6.195312 5.816406-6.695312 2.585938-.386719 4.703126-2.1875 5.5-4.675782.792969-2.488281.113282-5.183593-1.769531-6.996093-38.109375-36.59375-64.214843-102.132813-64.160156-177.042969 0-3.050781.066406-6.105469.152344-9.199219l-6.824219-.1875v6.824219h286.40625v-6.824219l-6.824219.1875c.085938 3.089844.15625 6.148438.15625 9.199219.050781 74.910156-26.054687 140.449219-64.164062 177.042969-1.882813 1.8125-2.5625 4.507812-1.769531 6.996093.796874 2.488282 2.914062 4.289063 5.5 4.675782 3.308593.5 5.828124 3.300781 5.820312 6.695312v40.960938c0 1.796875.726562 3.554687 2 4.828125 1.269531 1.269531 3.027344 2 4.824219 2h27.308593zm0 0"/><path d="m122.878906 191.601562c0 7.539063-6.113281 13.652344-13.652344 13.652344-7.539062 0-13.652343-6.113281-13.652343-13.652344 0-7.542968 6.113281-13.65625 13.652343-13.65625 7.539063 0 13.652344 6.113282 13.652344 13.65625zm0 0"/><path d="m341.332031 191.601562c0 7.539063-6.113281 13.652344-13.652343 13.652344-7.539063 0-13.652344-6.113281-13.652344-13.652344 0-7.542968 6.113281-13.65625 13.652344-13.65625 7.539062 0 13.652343 6.113282 13.652343 13.65625zm0 0"/></g><path d="m75.25 136.988281h286.40625c-.554688-14.226562-2.835938-27.960937-6.625-40.960937h-273.152344c-3.792968 13-6.070312 26.734375-6.628906 40.960937zm0 0" fill="#ffb8f2"/><path d="m75.25 136.988281v6.824219h286.40625c1.851562 0 3.640625-.757812 4.921875-2.09375 1.28125-1.332031 1.972656-3.152344 1.898437-5-.578124-14.78125-2.949218-29.070312-6.894531-42.605469-.847656-2.90625-3.523437-4.914062-6.550781-4.914062h-273.152344c-3.03125 0-5.707031 2.007812-6.554687 4.914062-3.945313 13.535157-6.316407 27.824219-6.894531 42.605469-.074219 1.847656.617187 3.664062 1.898437 5 1.285156 1.335938 3.074219 2.09375 4.921875 2.09375v-6.824219l6.820312.265625c.535157-13.671875 2.726563-26.851562 6.359376-39.316406l-6.550782-1.910156v6.824218h273.152344v-6.824218l-6.554688 1.910156c3.632813 12.464844 5.824219 25.644531 6.359376 39.316406l6.820312-.265625v-6.828125h-286.40625v6.828125l6.820312.265625zm0 0" fill="#54596e"/><path d="m273.066406 27.761719h-109.226562c-37.703125 0-68.265625 30.5625-68.265625 68.265625h245.757812c0-37.703125-30.5625-68.265625-68.265625-68.265625zm0 0" fill="#adf2a2"/><path d="m273.066406 27.761719v-6.828125h-109.226562c-41.476563.003906-75.089844 33.617187-75.09375 75.09375 0 1.820312.710937 3.535156 2 4.824218 1.292968 1.292969 3.003906 2 4.828125 2h245.757812c1.824219 0 3.539063-.707031 4.828125-1.996093 1.289063-1.289063 2-3.003907 2-4.828125-.003906-41.476563-33.617187-75.089844-75.09375-75.09375v13.652344c16.988282.007812 32.304688 6.867187 43.445313 17.996093 11.128906 11.140625 17.992187 26.457031 17.996093 43.445313h6.824219v-6.828125h-245.757812v6.828125h6.824219c.003906-16.988282 6.867187-32.308594 17.996093-43.445313 11.140625-11.128906 26.457031-17.992187 43.445313-17.996093h109.226562zm0 0" fill="#54596e"/><path d="m197.972656 48.238281v-13.652343c0-15.082032-12.226562-27.304688-27.304687-27.304688-15.082031 0-27.308594 12.222656-27.308594 27.304688v13.652343" fill="#adf2a2"/><path d="m204.800781 48.238281v-13.652343c-.007812-18.855469-15.28125-34.128907-34.132812-34.132813-18.855469.003906-34.128907 15.277344-34.132813 34.132813v13.652343c0 3.773438 3.054688 6.828125 6.824219 6.828125s6.828125-3.054687 6.828125-6.828125v-13.652343c.019531-11.308594 9.171875-20.457032 20.480469-20.480469 11.304687.023437 20.457031 9.171875 20.480469 20.480469v13.652343c0 3.773438 3.054687 6.828125 6.824218 6.828125 3.769532 0 6.828125-3.054687 6.828125-6.828125zm0 0" fill="#54596e"/><path d="m245.761719 48.238281v-13.652343c0-15.082032-10.699219-27.304688-23.894531-27.304688-13.195313 0-23.894532 12.222656-23.894532 27.304688v13.652343" fill="#adf2a2"/><path d="m252.585938 48.238281v-13.652343c-.003907-9.160157-3.234376-17.566407-8.6875-23.804688-5.417969-6.226562-13.277344-10.339844-22.03125-10.328125-8.753907-.011719-16.613282 4.101563-22.035157 10.328125-5.449219 6.238281-8.679687 14.644531-8.683593 23.804688v13.652343c0 3.773438 3.054687 6.828125 6.824218 6.828125 3.769532 0 6.828125-3.054687 6.828125-6.828125v-13.652343c-.007812-5.921876 2.113281-11.167969 5.308594-14.816407 3.226563-3.652343 7.3125-5.65625 11.757813-5.664062 4.445312.007812 8.53125 2.011719 11.757812 5.664062 3.195312 3.648438 5.3125 8.894531 5.308594 14.816407v13.652343c0 3.773438 3.054687 6.828125 6.828125 6.828125 3.769531 0 6.824219-3.054687 6.824219-6.828125zm0 0" fill="#54596e"/><path d="m300.375 48.238281v-13.652343c0-15.082032-12.226562-27.304688-27.308594-27.304688-15.078125 0-27.304687 12.222656-27.304687 27.304688v13.652343" fill="#adf2a2"/><path d="m307.199219 48.238281v-13.652343c-.003907-18.855469-15.277344-34.128907-34.132813-34.132813-18.851562.003906-34.128906 15.277344-34.132812 34.132813v13.652343c0 3.773438 3.054687 6.828125 6.828125 6.828125 3.769531 0 6.824219-3.054687 6.824219-6.828125v-13.652343c.019531-11.308594 9.175781-20.457032 20.480468-20.480469 11.308594.023437 20.460938 9.171875 20.480469 20.480469v13.652343c0 3.773438 3.054687 6.828125 6.828125 6.828125 3.769531 0 6.824219-3.054687 6.824219-6.828125zm0 0" fill="#54596e"/><path d="m46.667969 40.628906c-5.375 13.074219-3.875 28.5625 5.363281 40.574219 9.238281 12.015625 23.820312 17.449219 37.835938 15.609375 5.375-13.070312 3.875-28.5625-5.363282-40.574219-9.238281-12.015625-23.820312-17.449219-37.835937-15.609375zm0 0" fill="#ffb8f2"/><path d="m46.667969 40.628906-6.3125-2.597656c-2.394531 5.816406-3.617188 12.039062-3.617188 18.296875-.003906 10.125 3.226563 20.386719 9.882813 29.035156 9.398437 12.230469 23.601562 18.636719 37.886718 18.625 2.085938 0 4.167969-.136719 6.234376-.402343 2.441406-.316407 4.503906-1.898438 5.4375-4.171876 2.394531-5.820312 3.617187-12.042968 3.617187-18.296874.003906-10.132813-3.226563-20.394532-9.882813-29.039063-9.398437-12.226563-23.601562-18.636719-37.886718-18.625-2.078125-.003906-4.171875.128906-6.265625.410156-2.417969.324219-4.480469 1.910157-5.410157 4.167969l6.316407 2.597656.902343 6.765625c1.46875-.195312 2.957032-.292969 4.457032-.292969 10.265625.011719 20.335937 4.550782 27.066406 13.296876 4.765625 6.203124 7.042969 13.457031 7.046875 20.714843 0 4.476563-.875 8.941407-2.585937 13.105469l6.3125 2.597656-.875-6.773437c-1.496094.191406-2.992188.292969-4.484376.292969-10.269531-.011719-20.339843-4.550782-27.066406-13.292969-4.769531-6.214844-7.046875-13.464844-7.050781-20.71875 0-4.476563.878906-8.9375 2.589844-13.101563l-6.3125-2.59375.902343 6.765625zm0 0" fill="#54596e"/><path d="m14.835938 129.546875c11.089843 8.765625 26.394531 11.578125 40.488281 6.003906 14.089843-5.574219 23.324219-18.101562 25.414062-32.082031-11.089843-8.765625-26.394531-11.578125-40.488281-6.003906-14.089844 5.574218-23.324219 18.101562-25.414062 32.082031zm0 0" fill="#ffb8f2"/><path d="m14.835938 129.546875-4.230469 5.355469c8.402343 6.640625 18.863281 10.34375 29.703125 10.347656 5.839844 0 11.785156-1.085938 17.523437-3.351562 16.441407-6.507813 27.234375-21.144532 29.65625-37.421876.359375-2.414062-.605469-4.855468-2.519531-6.363281-8.402344-6.640625-18.863281-10.351562-29.707031-10.355469-5.835938 0-11.785157 1.082032-17.527344 3.359376h.003906c-16.4375 6.503906-27.230469 21.144531-29.652343 37.417968-.363282 2.414063.605468 4.855469 2.519531 6.367188l4.230469-5.355469 6.75 1.007813c1.761718-11.683594 9.433593-22.097657 21.175781-26.742188l.003906-.003906c4.121094-1.632813 8.335937-2.394532 12.496094-2.398438 7.710937 0 15.226562 2.660156 21.238281 7.414063l4.234375-5.355469-6.75-1.007812c-1.761719 11.683593-9.429687 22.097656-21.171875 26.742187l.003906-.003906c-4.132812 1.632812-8.351562 2.394531-12.507812 2.398437-7.714844 0-15.226563-2.65625-21.238282-7.410156l-4.234374 5.359375 6.75 1.007813zm0 0" fill="#54596e"/><path d="m293.546875 280.347656-33.761719-6.140625c-27.332031-4.96875-55.332031-4.96875-82.664062 0l-33.761719 6.140625c-18.847656 0-34.132813-15.28125-34.132813-34.132812 0-18.851563 15.285157-34.136719 34.132813-34.136719h150.1875c18.851563 0 34.132813 15.285156 34.132813 34.136719 0 18.851562-15.28125 34.132812-34.132813 34.132812zm0 0" fill="#ff927d"/><path d="m293.546875 280.347656 1.21875-6.71875-33.761719-6.136718c-14.066406-2.5625-28.308594-3.84375-42.550781-3.839844-14.238281-.003906-28.480469 1.277344-42.550781 3.839844l-33.761719 6.136718 1.21875 6.71875v-6.828125c-7.5625-.003906-14.34375-3.046875-19.308594-8-4.949219-4.960937-7.992187-11.742187-7.996093-19.304687.003906-7.566406 3.046874-14.347656 7.996093-19.3125 4.964844-4.949219 11.75-7.992188 19.308594-7.996094h150.1875c7.558594.003906 14.34375 3.046875 19.308594 7.996094 4.953125 4.964844 7.996093 11.75 7.996093 19.3125s-3.042968 14.34375-7.996093 19.304687c-4.964844 4.953125-11.75 7.996094-19.308594 8v6.828125l1.21875-6.71875-1.21875 6.71875v6.824219c22.625 0 40.953125-18.332031 40.960937-40.957031-.007812-22.625-18.335937-40.957032-40.960937-40.960938h-150.1875c-22.621094.003906-40.953125 18.335938-40.960937 40.960938.007812 22.625 18.339843 40.957031 40.960937 40.957031l1.222656-.109375 33.761719-6.136719c13.261719-2.414062 26.683594-3.617187 40.109375-3.617187s26.847656 1.203125 40.109375 3.617187l33.765625 6.136719 1.21875.109375zm0 0" fill="#54596e"/><path d="m164.6875 252.988281 33.59375-4.203125c6.699219-.835937 13.433594-1.253906 20.171875-1.253906s13.472656.417969 20.171875 1.253906l33.59375 4.203125c3.742188.464844 7.152344-2.1875 7.621094-5.929687.46875-3.738282-2.1875-7.152344-5.925782-7.617188l-33.59375-4.203125c-7.261718-.910156-14.566406-1.363281-21.867187-1.359375-7.304687-.003906-14.605469.449219-21.867187 1.359375l-33.59375 4.199219c-3.742188.464844-6.398438 3.878906-5.925782 7.621094.464844 3.742187 3.878906 6.398437 7.621094 5.929687zm0 0" fill="#54596e"/></svg>