<svg height="512pt" viewBox="0 -75 512 512" width="512pt" xmlns="http://www.w3.org/2000/svg"><path d="m509.175781 209.214844-6.003906-23.835938c-34.320313-1.644531-66.363281-17.667968-88.273437-44.136718-35.3125-44.140626-44.140626-141.242188-158.898438-141.242188s-123.585938 97.101562-158.898438 141.242188c-21.910156 26.46875-53.953124 42.492187-88.273437 44.136718l-6.003906 23.835938-2.824219 11.476562c35.308594 79.445313 97.101562 88.273438 97.101562 88.273438v35.3125c0 9.75 7.90625 17.652344 17.65625 17.652344h282.484376c9.75 0 17.65625-7.902344 17.65625-17.652344v-35.3125s61.792968-8.828125 97.101562-88.273438zm0 0" fill="#3f5c6c"/><path d="m512 220.691406c-35.308594 79.445313-97.101562 88.273438-97.101562 88.273438h-317.796876s-61.792968-8.828125-97.101562-88.273438l2.824219-11.476562 6.003906-23.835938c34.320313-1.644531 66.363281-17.667968 88.273437-44.136718 35.3125-44.140626 44.140626-141.242188 158.898438-141.242188s123.585938 97.101562 158.898438 141.242188c21.910156 26.46875 53.953124 42.492187 88.273437 44.136718l6.003906 23.835938zm0 0" fill="#35495e"/><path d="m509.175781 209.214844c-35.753906 73.710937-94.277343 82.09375-94.277343 82.09375h-317.796876s-58.523437-8.382813-94.277343-82.09375l6.003906-23.835938c34.320313-1.644531 66.363281-17.667968 88.273437-44.136718 35.3125-44.140626 44.140626-141.242188 158.898438-141.242188s123.585938 97.101562 158.898438 141.242188c21.910156 26.46875 53.953124 42.492187 88.273437 44.136718zm0 0" fill="#3f5c6c"/><g fill="#f9eab0"><path d="m335.449219 264.828125c-2.34375 0-4.585938-.929687-6.242188-2.585937l-32.839843-32.839844c-3.34375-3.464844-3.296876-8.96875.109374-12.375s8.910157-3.453125 12.375-.105469l32.835938 32.835937c2.527344 2.527344 3.28125 6.320313 1.914062 9.621094-1.367187 3.296875-4.582031 5.449219-8.152343 5.449219zm0 0"/><path d="m191.734375 121.113281c-2.339844.007813-4.589844-.925781-6.242187-2.585937l-15.179688-15.183594c-3.347656-3.464844-3.300781-8.96875.105469-12.375 3.40625-3.402344 8.910156-3.453125 12.375-.105469l15.183593 15.183594c2.523438 2.523437 3.277344 6.320313 1.914063 9.617187-1.367187 3.300782-4.585937 5.449219-8.15625 5.449219zm0 0"/><path d="m176.550781 264.828125c-3.570312 0-6.785156-2.152344-8.152343-5.449219-1.367188-3.300781-.613282-7.09375 1.914062-9.621094l32.835938-32.835937c3.464843-3.347656 8.96875-3.300781 12.375.105469s3.453124 8.910156.109374 12.375l-32.839843 32.839844c-1.65625 1.65625-3.898438 2.585937-6.242188 2.585937zm0 0"/><path d="m320.089844 121.292969c-3.570313-.003907-6.789063-2.152344-8.15625-5.453125-1.363282-3.296875-.609375-7.09375 1.914062-9.617188l15.359375-15.359375c3.464844-3.347656 8.96875-3.296875 12.375.105469 3.40625 3.40625 3.453125 8.910156.105469 12.375l-15.359375 15.359375c-1.652344 1.65625-3.898437 2.585937-6.238281 2.589844zm0 0"/><path d="m176.550781 105.929688h-17.652343c-4.878907 0-8.828126-3.949219-8.828126-8.828126 0-4.875 3.949219-8.824218 8.828126-8.824218h8.824218v-8.828125c0-4.875 3.953125-8.828125 8.828125-8.828125s8.828125 3.953125 8.828125 8.828125v17.652343c0 4.878907-3.953125 8.828126-8.828125 8.828126zm0 0"/><path d="m353.101562 105.929688h-17.652343c-4.875 0-8.828125-3.949219-8.828125-8.828126v-17.652343c0-4.875 3.953125-8.828125 8.828125-8.828125s8.828125 3.953125 8.828125 8.828125v8.828125h8.824218c4.878907 0 8.828126 3.949218 8.828126 8.824218 0 4.878907-3.949219 8.828126-8.828126 8.828126zm0 0"/><path d="m176.550781 282.484375c-4.875 0-8.828125-3.953125-8.828125-8.828125v-8.828125h-8.824218c-4.878907 0-8.828126-3.953125-8.828126-8.828125s3.949219-8.828125 8.828126-8.828125h17.652343c4.875 0 8.828125 3.953125 8.828125 8.828125v17.65625c0 4.875-3.953125 8.828125-8.828125 8.828125zm0 0"/><path d="m335.449219 282.484375c-4.875 0-8.828125-3.953125-8.828125-8.828125v-17.65625c0-4.875 3.953125-8.828125 8.828125-8.828125h17.652343c4.878907 0 8.828126 3.953125 8.828126 8.828125s-3.949219 8.828125-8.828126 8.828125h-8.824218v8.828125c0 4.875-3.953125 8.828125-8.828125 8.828125zm0 0"/></g><path d="m97.101562 308.964844h317.796876v35.3125c0 9.75-7.90625 17.652344-17.65625 17.652344h-282.484376c-9.75 0-17.65625-7.902344-17.65625-17.652344zm0 0" fill="#2c3e50"/><path d="m335.449219 158.898438c-.003907 30.175781-17.105469 57.746093-44.140625 71.15625v17.117187c0 9.75-7.902344 17.65625-17.652344 17.65625h-35.3125c-9.75 0-17.652344-7.90625-17.652344-17.65625v-17.125c-33.429687-16.570313-50.824218-54.171875-41.808594-90.378906 9.015626-36.203125 42.011719-61.257813 79.304688-60.21875 42.824219 1.636719 76.820312 36.597656 77.261719 79.449219zm0 0" fill="#f5efca"/><path d="m247.171875 150.070312c0 9.75-7.902344 17.652344-17.65625 17.652344-9.75 0-17.652344-7.902344-17.652344-17.652344 0-9.753906 7.902344-17.65625 17.652344-17.65625 9.753906 0 17.65625 7.902344 17.65625 17.65625zm0 0" fill="#3f5c6c"/><path d="m300.136719 150.070312c0 9.75-7.902344 17.652344-17.652344 17.652344-9.753906 0-17.65625-7.902344-17.65625-17.652344 0-9.753906 7.902344-17.65625 17.65625-17.65625 9.75 0 17.652344 7.902344 17.652344 17.65625zm0 0" fill="#3f5c6c"/><path d="m256 211.863281c-2.339844 0-4.585938-.933593-6.242188-2.585937l-8.828124-8.828125c-3.34375-3.464844-3.296876-8.972657.109374-12.375 3.40625-3.40625 8.910157-3.453125 12.375-.109375l2.585938 2.585937 2.585938-2.585937c3.464843-3.34375 8.96875-3.296875 12.375.109375 3.40625 3.402343 3.453124 8.910156.109374 12.375l-8.828124 8.828125c-1.65625 1.652344-3.902344 2.585937-6.242188 2.585937zm0 0" fill="#3f5c6c"/><path d="m256 273.65625c-4.875 0-8.828125-3.953125-8.828125-8.828125v-26.484375c0-4.875 3.953125-8.828125 8.828125-8.828125s8.828125 3.953125 8.828125 8.828125v26.484375c0 4.875-3.953125 8.828125-8.828125 8.828125zm0 0" fill="#3f5c6c"/></svg>