<?xml version="1.0" encoding="windows-1252"?>
<!-- Generator: Adobe Illustrator 19.0.0, SVG Export Plug-In . SVG Version: 6.00 Build 0)  -->
<svg xmlns="http://www.w3.org/2000/svg" xmlns:xlink="http://www.w3.org/1999/xlink" version="1.1" id="Layer_1" x="0px" y="0px" viewBox="0 0 512 512" style="enable-background:new 0 0 512 512;" xml:space="preserve" width="512" height="512">
<g>
	<path style="fill:#9CDD05;" d="M379.421,363.999l-122.401-0.601l-123.3-0.599c-26.4-43.801-45.601-102.301-40.8-152.701   L104.32,77.8C127.42,28.9,183.22,0,257.021,0s129.6,28.9,152.701,77.8l11.398,132.299   C425.921,260.2,406.12,320.499,379.421,363.999z"/>
	<path style="fill:#66BB00;" d="M379.421,363.999l-122.401-0.601V0c73.801,0,129.6,28.9,152.701,77.8l11.398,132.299   C425.921,260.2,406.12,320.499,379.421,363.999z"/>
	<circle style="fill:#E0F4FF;" cx="152.021" cy="151" r="75"/>
	<circle style="fill:#BBDCFF;" cx="362.021" cy="151" r="75"/>
	<polygon style="fill:#575F64;" points="158.188,327.602 94.613,375.678 148.886,447.47 194.721,412.826  "/>
	<polygon style="fill:#32393F;" points="355.927,329.228 318.559,413.793 363.134,447.484 417.377,375.663  "/>
	<line x1="357.275" y1="405.443" x2="375.365" y2="381.522"/>
	<g>
		<g>
			
				<rect x="137.022" y="76.008" transform="matrix(0.7071 0.7071 -0.7071 0.7071 151.299 -63.268)" style="fill:#BBDCFF;" width="29.997" height="149.984"/>
		</g>
	</g>
	<g>
		<g>
			
				<rect x="347.022" y="76.008" transform="matrix(0.7071 0.7071 -0.7071 0.7071 212.8065 -211.7604)" style="fill:#9ABADB;" width="29.997" height="149.984"/>
		</g>
	</g>
	<g>
		<path style="fill:#575F64;" d="M152.021,241c-49.629,0-90-40.371-90-90s40.371-90,90-90s90,40.371,90,90S201.65,241,152.021,241z     M152.021,91c-33.091,0-60,26.909-60,60s26.909,60,60,60s60-26.909,60-60S185.111,91,152.021,91z"/>
	</g>
	<g>
		<path style="fill:#32393F;" d="M362.021,241c-49.629,0-90-40.371-90-90s40.371-90,90-90s90,40.371,90,90S411.65,241,362.021,241z     M362.021,91c-33.091,0-60,26.909-60,60s26.909,60,60,60s60-26.909,60-60S395.111,91,362.021,91z"/>
	</g>
	<path style="fill:#BBDCFF;" d="M347.021,346c0,49.799-40.201,90-90,90s-90-40.201-90-90c0-49.801,40.201-90,90-90   S347.021,296.199,347.021,346z"/>
	<path style="fill:#575F64;" d="M257.021,241c-57.9,0-105,47.1-105,105s47.1,105,105,105s105-47.1,105-105S314.92,241,257.021,241z    M182.021,346c0-36.301,25.8-66.601,60-73.5v31.199c-17.401,6.301-30,22.8-30,42.301c0,2.699,0.3,5.4,0.901,8.099l-26.7,15.3   C183.821,362.199,182.021,354.399,182.021,346z M257.021,421c-22.2,0-42.001-9.901-55.8-25.501l26.7-15.298   c7.798,6.599,17.999,10.8,29.099,10.8s21.301-4.2,29.099-10.8l26.7,15.298C299.021,411.099,279.22,421,257.021,421z    M327.82,369.399l-26.7-15.3c0.601-2.699,0.901-5.4,0.901-8.099c0-19.501-12.599-36-30-42.301V272.5c34.2,6.899,60,37.2,60,73.5   C332.021,354.399,330.221,362.199,327.82,369.399z"/>
	<path style="fill:#9ABADB;" d="M347.021,346c0,49.799-40.201,90-90,90V256C306.82,256,347.021,296.199,347.021,346z"/>
	<path style="fill:#32393F;" d="M257.021,241v150c11.1,0,21.301-4.2,29.099-10.8l26.7,15.298   c-13.799,15.601-33.6,25.501-55.8,25.501v30c57.9,0,105-47.1,105-105S314.92,241,257.021,241z M327.82,369.399l-26.7-15.3   c0.601-2.699,0.901-5.4,0.901-8.099c0-19.501-12.599-36-30-42.301V272.5c34.2,6.899,60,37.2,60,73.5   C332.021,354.399,330.221,362.199,327.82,369.399z"/>
	<g>
		<path style="fill:#7C8388;" d="M110.068,494.105l-72.363-95.728c-14.989-19.803-11.121-47.982,8.774-63.018l35.874-27.144    l126.636,167.52l-35.903,27.144C153.238,517.894,125.072,513.96,110.068,494.105z"/>
	</g>
	<path style="fill:#575F64;" d="M338.905,502.929l-35.889-27.144l126.621-167.505l35.889,27.129   c19.855,15.005,23.779,43.177,8.774,63.032l-72.363,95.713C387.023,513.893,358.722,517.908,338.905,502.929z"/>
</g>















</svg>